<mxfile host="app.diagrams.net" agent="Mozilla/5.0 (Macintosh; Intel Mac OS X 10_15_7) AppleWebKit/537.36 (KHTML, like Gecko) Chrome/128.0.0.0 Safari/537.36" version="24.7.12">
  <diagram name="Page-1" id="9kv5jZxlI-P6tB1nFdzt">
    <mxGraphModel dx="1912" dy="1132" grid="1" gridSize="10" guides="1" tooltips="1" connect="1" arrows="1" fold="1" page="1" pageScale="1" pageWidth="850" pageHeight="1100" math="0" shadow="0">
      <root>
        <mxCell id="0" />
        <mxCell id="1" parent="0" />
        <mxCell id="DkS5B9mOx-mKUJ4WU4K5-21" value="1. PRs merge to develop branch, deploy to dev and sandbox env" style="edgeStyle=orthogonalEdgeStyle;rounded=0;orthogonalLoop=1;jettySize=auto;html=1;curved=0;" edge="1" parent="1" target="DkS5B9mOx-mKUJ4WU4K5-20">
          <mxGeometry relative="1" as="geometry">
            <mxPoint x="58.5" y="420" as="sourcePoint" />
            <mxPoint x="459.5" y="360" as="targetPoint" />
            <Array as="points">
              <mxPoint x="59" y="421" />
              <mxPoint x="105" y="421" />
              <mxPoint x="105" y="470" />
            </Array>
          </mxGeometry>
        </mxCell>
        <mxCell id="DkS5B9mOx-mKUJ4WU4K5-23" value="" style="edgeStyle=orthogonalEdgeStyle;rounded=0;orthogonalLoop=1;jettySize=auto;html=1;curved=0;exitX=0.51;exitY=0.368;exitDx=0;exitDy=0;exitPerimeter=0;" edge="1" parent="1" source="uVeZKtp4HrXrIB4ox1Ez-3" target="DkS5B9mOx-mKUJ4WU4K5-22">
          <mxGeometry relative="1" as="geometry">
            <mxPoint x="40" y="550" as="sourcePoint" />
            <mxPoint x="825.5" y="540" as="targetPoint" />
            <Array as="points">
              <mxPoint x="320" y="550" />
              <mxPoint x="320" y="540" />
            </Array>
          </mxGeometry>
        </mxCell>
        <mxCell id="DkS5B9mOx-mKUJ4WU4K5-24" value="&lt;span style=&quot;text-align: left;&quot;&gt;2. when code change to release/* or hotfix/* branch github workflow trigger merge to paywall-api-stage branch&lt;/span&gt;" style="edgeLabel;html=1;align=center;verticalAlign=middle;resizable=0;points=[];" vertex="1" connectable="0" parent="DkS5B9mOx-mKUJ4WU4K5-23">
          <mxGeometry x="0.0611" y="1" relative="1" as="geometry">
            <mxPoint as="offset" />
          </mxGeometry>
        </mxCell>
        <mxCell id="DkS5B9mOx-mKUJ4WU4K5-34" value="6. merge PRs to main and deploy to production domain" style="edgeStyle=orthogonalEdgeStyle;rounded=0;orthogonalLoop=1;jettySize=auto;html=1;curved=0;" edge="1" parent="1" target="DkS5B9mOx-mKUJ4WU4K5-33">
          <mxGeometry relative="1" as="geometry">
            <mxPoint x="58.5" y="800" as="sourcePoint" />
            <mxPoint x="1585" y="760" as="targetPoint" />
            <Array as="points">
              <mxPoint x="59" y="801" />
            </Array>
            <mxPoint as="offset" />
          </mxGeometry>
        </mxCell>
        <mxCell id="uVeZKtp4HrXrIB4ox1Ez-3" value="GitHub crain-mono-web" style="shape=umlLifeline;perimeter=lifelinePerimeter;whiteSpace=wrap;html=1;container=1;dropTarget=0;collapsible=0;recursiveResize=0;outlineConnect=0;portConstraint=eastwest;newEdgeStyle={&quot;curved&quot;:0,&quot;rounded&quot;:0};" parent="1" vertex="1">
          <mxGeometry x="9" y="270" width="100" height="760" as="geometry" />
        </mxCell>
        <mxCell id="DkS5B9mOx-mKUJ4WU4K5-20" value="&lt;a style=&quot;text-align: left; border-width: 0px; border-style: solid; border-color: hsla(var(--ds-gray-200-value),1); box-sizing: border-box; --tw-border-spacing-x: 0; --tw-border-spacing-y: 0; --tw-translate-x: 0; --tw-translate-y: 0; --tw-rotate: 0; --tw-skew-x: 0; --tw-skew-y: 0; --tw-scale-x: 1; --tw-scale-y: 1; --tw-pan-x: ; --tw-pan-y: ; --tw-pinch-zoom: ; --tw-scroll-snap-strictness: proximity; --tw-gradient-from-position: ; --tw-gradient-via-position: ; --tw-gradient-to-position: ; --tw-ordinal: ; --tw-slashed-zero: ; --tw-numeric-figure: ; --tw-numeric-spacing: ; --tw-numeric-fraction: ; --tw-ring-inset: ; --tw-ring-offset-width: 0px; --tw-ring-offset-color: #fff; --tw-ring-color: rgba(147,197,253,.5); --tw-ring-offset-shadow: 0 0 #0000; --tw-ring-shadow: 0 0 #0000; --tw-shadow: 0 0 #0000; --tw-shadow-colored: 0 0 #0000; --tw-blur: ; --tw-brightness: ; --tw-contrast: ; --tw-grayscale: ; --tw-hue-rotate: ; --tw-invert: ; --tw-saturate: ; --tw-sepia: ; --tw-drop-shadow: ; --tw-backdrop-blur: ; --tw-backdrop-brightness: ; --tw-backdrop-contrast: ; --tw-backdrop-grayscale: ; --tw-backdrop-hue-rotate: ; --tw-backdrop-invert: ; --tw-backdrop-opacity: ; --tw-backdrop-saturate: ; --tw-backdrop-sepia: ; -webkit-tap-highlight-color: rgba(0, 0, 0, 0); text-decoration-line: none; cursor: pointer; outline: none; align-items: flex-start; word-break: break-word; font-family: geistSansFont, &amp;quot;Apple Color Emoji&amp;quot;, &amp;quot;Segoe UI Emoji&amp;quot;, &amp;quot;Segoe UI Symbol&amp;quot;, arial; min-width: 0px;&quot; data-prefetch=&quot;true&quot; class=&quot;link_link__hbWKh alias-domain_aliasLink__RQP89&quot; data-zone=&quot;null&quot; target=&quot;_blank&quot; rel=&quot;noopener&quot; href=&quot;https://paywalls-dev.autonews.com/&quot;&gt;paywalls-dev.autonews.com&lt;/a&gt;&lt;span style=&quot;text-align: left; text-wrap: nowrap; background-color: rgb(255, 255, 255);&quot;&gt;,&lt;/span&gt;&lt;div style=&quot;text-wrap: nowrap; text-align: left;&quot;&gt;&lt;a style=&quot;border-width: 0px; border-style: solid; border-color: hsla(var(--ds-gray-200-value),1); box-sizing: border-box; --tw-border-spacing-x: 0; --tw-border-spacing-y: 0; --tw-translate-x: 0; --tw-translate-y: 0; --tw-rotate: 0; --tw-skew-x: 0; --tw-skew-y: 0; --tw-scale-x: 1; --tw-scale-y: 1; --tw-pan-x: ; --tw-pan-y: ; --tw-pinch-zoom: ; --tw-scroll-snap-strictness: proximity; --tw-gradient-from-position: ; --tw-gradient-via-position: ; --tw-gradient-to-position: ; --tw-ordinal: ; --tw-slashed-zero: ; --tw-numeric-figure: ; --tw-numeric-spacing: ; --tw-numeric-fraction: ; --tw-ring-inset: ; --tw-ring-offset-width: 0px; --tw-ring-offset-color: #fff; --tw-ring-color: rgba(147,197,253,.5); --tw-ring-offset-shadow: 0 0 #0000; --tw-ring-shadow: 0 0 #0000; --tw-shadow: 0 0 #0000; --tw-shadow-colored: 0 0 #0000; --tw-blur: ; --tw-brightness: ; --tw-contrast: ; --tw-grayscale: ; --tw-hue-rotate: ; --tw-invert: ; --tw-saturate: ; --tw-sepia: ; --tw-drop-shadow: ; --tw-backdrop-blur: ; --tw-backdrop-brightness: ; --tw-backdrop-contrast: ; --tw-backdrop-grayscale: ; --tw-backdrop-hue-rotate: ; --tw-backdrop-invert: ; --tw-backdrop-opacity: ; --tw-backdrop-saturate: ; --tw-backdrop-sepia: ; -webkit-tap-highlight-color: rgba(0, 0, 0, 0); text-decoration-line: none; cursor: pointer; outline: none; align-items: flex-start; word-break: break-word; font-family: geistSansFont, &amp;quot;Apple Color Emoji&amp;quot;, &amp;quot;Segoe UI Emoji&amp;quot;, &amp;quot;Segoe UI Symbol&amp;quot;, arial; text-wrap: wrap; min-width: 0px;&quot; data-prefetch=&quot;true&quot; class=&quot;link_link__hbWKh alias-domain_aliasLink__RQP89&quot; data-zone=&quot;null&quot; target=&quot;_blank&quot; rel=&quot;noopener&quot; href=&quot;https://paywall-auth.arcxp-dev.autonews.com/&quot;&gt;paywall-auth.arcxp-dev.autonews.com&lt;/a&gt;,&lt;br&gt;&lt;/div&gt;&lt;div style=&quot;text-wrap: nowrap; text-align: left;&quot;&gt;&lt;a style=&quot;border-width: 0px; border-style: solid; border-color: hsla(var(--ds-gray-200-value),1); box-sizing: border-box; --tw-border-spacing-x: 0; --tw-border-spacing-y: 0; --tw-translate-x: 0; --tw-translate-y: 0; --tw-rotate: 0; --tw-skew-x: 0; --tw-skew-y: 0; --tw-scale-x: 1; --tw-scale-y: 1; --tw-pan-x: ; --tw-pan-y: ; --tw-pinch-zoom: ; --tw-scroll-snap-strictness: proximity; --tw-gradient-from-position: ; --tw-gradient-via-position: ; --tw-gradient-to-position: ; --tw-ordinal: ; --tw-slashed-zero: ; --tw-numeric-figure: ; --tw-numeric-spacing: ; --tw-numeric-fraction: ; --tw-ring-inset: ; --tw-ring-offset-width: 0px; --tw-ring-offset-color: #fff; --tw-ring-color: rgba(147,197,253,.5); --tw-ring-offset-shadow: 0 0 #0000; --tw-ring-shadow: 0 0 #0000; --tw-shadow: 0 0 #0000; --tw-shadow-colored: 0 0 #0000; --tw-blur: ; --tw-brightness: ; --tw-contrast: ; --tw-grayscale: ; --tw-hue-rotate: ; --tw-invert: ; --tw-saturate: ; --tw-sepia: ; --tw-drop-shadow: ; --tw-backdrop-blur: ; --tw-backdrop-brightness: ; --tw-backdrop-contrast: ; --tw-backdrop-grayscale: ; --tw-backdrop-hue-rotate: ; --tw-backdrop-invert: ; --tw-backdrop-opacity: ; --tw-backdrop-saturate: ; --tw-backdrop-sepia: ; -webkit-tap-highlight-color: rgba(0, 0, 0, 0); text-decoration-line: none; cursor: pointer; outline: none; align-items: flex-start; word-break: break-word; font-family: geistSansFont, &amp;quot;Apple Color Emoji&amp;quot;, &amp;quot;Segoe UI Emoji&amp;quot;, &amp;quot;Segoe UI Symbol&amp;quot;, arial; text-wrap: wrap; min-width: 0px;&quot; data-prefetch=&quot;true&quot; class=&quot;link_link__hbWKh alias-domain_aliasLink__RQP89&quot; data-zone=&quot;null&quot; target=&quot;_blank&quot; rel=&quot;noopener&quot; href=&quot;https://paywall-auth.arcxp-dev.autonews.com/&quot;&gt;paywall-auth.arcxp-sandbox.autonews.com&lt;/a&gt;&lt;/div&gt;" style="shape=umlLifeline;perimeter=lifelinePerimeter;whiteSpace=wrap;html=1;container=1;dropTarget=0;collapsible=0;recursiveResize=0;outlineConnect=0;portConstraint=eastwest;newEdgeStyle={&quot;curved&quot;:0,&quot;rounded&quot;:0};" vertex="1" parent="1">
          <mxGeometry x="140" y="270" width="380" height="760" as="geometry" />
        </mxCell>
        <mxCell id="DkS5B9mOx-mKUJ4WU4K5-26" value="" style="edgeStyle=orthogonalEdgeStyle;rounded=0;orthogonalLoop=1;jettySize=auto;html=1;curved=0;" edge="1" parent="1" source="DkS5B9mOx-mKUJ4WU4K5-22" target="DkS5B9mOx-mKUJ4WU4K5-25">
          <mxGeometry relative="1" as="geometry">
            <Array as="points">
              <mxPoint x="870" y="580" />
              <mxPoint x="870" y="580" />
            </Array>
          </mxGeometry>
        </mxCell>
        <mxCell id="DkS5B9mOx-mKUJ4WU4K5-27" value="4. test" style="edgeLabel;html=1;align=center;verticalAlign=middle;resizable=0;points=[];" vertex="1" connectable="0" parent="DkS5B9mOx-mKUJ4WU4K5-26">
          <mxGeometry x="-0.0079" y="1" relative="1" as="geometry">
            <mxPoint as="offset" />
          </mxGeometry>
        </mxCell>
        <mxCell id="DkS5B9mOx-mKUJ4WU4K5-22" value="&lt;a style=&quot;text-align: left; border-width: 0px; border-style: solid; border-color: hsla(var(--ds-gray-200-value),1); box-sizing: border-box; --tw-border-spacing-x: 0; --tw-border-spacing-y: 0; --tw-translate-x: 0; --tw-translate-y: 0; --tw-rotate: 0; --tw-skew-x: 0; --tw-skew-y: 0; --tw-scale-x: 1; --tw-scale-y: 1; --tw-pan-x: ; --tw-pan-y: ; --tw-pinch-zoom: ; --tw-scroll-snap-strictness: proximity; --tw-gradient-from-position: ; --tw-gradient-via-position: ; --tw-gradient-to-position: ; --tw-ordinal: ; --tw-slashed-zero: ; --tw-numeric-figure: ; --tw-numeric-spacing: ; --tw-numeric-fraction: ; --tw-ring-inset: ; --tw-ring-offset-width: 0px; --tw-ring-offset-color: #fff; --tw-ring-color: rgba(147,197,253,.5); --tw-ring-offset-shadow: 0 0 #0000; --tw-ring-shadow: 0 0 #0000; --tw-shadow: 0 0 #0000; --tw-shadow-colored: 0 0 #0000; --tw-blur: ; --tw-brightness: ; --tw-contrast: ; --tw-grayscale: ; --tw-hue-rotate: ; --tw-invert: ; --tw-saturate: ; --tw-sepia: ; --tw-drop-shadow: ; --tw-backdrop-blur: ; --tw-backdrop-brightness: ; --tw-backdrop-contrast: ; --tw-backdrop-grayscale: ; --tw-backdrop-hue-rotate: ; --tw-backdrop-invert: ; --tw-backdrop-opacity: ; --tw-backdrop-saturate: ; --tw-backdrop-sepia: ; -webkit-tap-highlight-color: rgba(0, 0, 0, 0); text-decoration-line: none; cursor: pointer; outline: none; align-items: flex-start; word-break: break-word; font-family: geistSansFont, &amp;quot;Apple Color Emoji&amp;quot;, &amp;quot;Segoe UI Emoji&amp;quot;, &amp;quot;Segoe UI Symbol&amp;quot;, arial; min-width: 0px;&quot; href=&quot;https://paywalls-dev.autonews.com/&quot; rel=&quot;noopener&quot; target=&quot;_blank&quot; data-zone=&quot;null&quot; class=&quot;link_link__hbWKh alias-domain_aliasLink__RQP89&quot; data-prefetch=&quot;true&quot;&gt;paywalls-stage.autonews.com&lt;/a&gt;&lt;span style=&quot;text-align: left; text-wrap: nowrap; background-color: rgb(255, 255, 255);&quot;&gt;,&lt;/span&gt;&lt;div style=&quot;text-wrap: nowrap; text-align: left;&quot;&gt;&lt;a style=&quot;border-width: 0px; border-style: solid; border-color: hsla(var(--ds-gray-200-value),1); box-sizing: border-box; --tw-border-spacing-x: 0; --tw-border-spacing-y: 0; --tw-translate-x: 0; --tw-translate-y: 0; --tw-rotate: 0; --tw-skew-x: 0; --tw-skew-y: 0; --tw-scale-x: 1; --tw-scale-y: 1; --tw-pan-x: ; --tw-pan-y: ; --tw-pinch-zoom: ; --tw-scroll-snap-strictness: proximity; --tw-gradient-from-position: ; --tw-gradient-via-position: ; --tw-gradient-to-position: ; --tw-ordinal: ; --tw-slashed-zero: ; --tw-numeric-figure: ; --tw-numeric-spacing: ; --tw-numeric-fraction: ; --tw-ring-inset: ; --tw-ring-offset-width: 0px; --tw-ring-offset-color: #fff; --tw-ring-color: rgba(147,197,253,.5); --tw-ring-offset-shadow: 0 0 #0000; --tw-ring-shadow: 0 0 #0000; --tw-shadow: 0 0 #0000; --tw-shadow-colored: 0 0 #0000; --tw-blur: ; --tw-brightness: ; --tw-contrast: ; --tw-grayscale: ; --tw-hue-rotate: ; --tw-invert: ; --tw-saturate: ; --tw-sepia: ; --tw-drop-shadow: ; --tw-backdrop-blur: ; --tw-backdrop-brightness: ; --tw-backdrop-contrast: ; --tw-backdrop-grayscale: ; --tw-backdrop-hue-rotate: ; --tw-backdrop-invert: ; --tw-backdrop-opacity: ; --tw-backdrop-saturate: ; --tw-backdrop-sepia: ; -webkit-tap-highlight-color: rgba(0, 0, 0, 0); text-decoration-line: none; cursor: pointer; outline: none; align-items: flex-start; word-break: break-word; font-family: geistSansFont, &amp;quot;Apple Color Emoji&amp;quot;, &amp;quot;Segoe UI Emoji&amp;quot;, &amp;quot;Segoe UI Symbol&amp;quot;, arial; text-wrap: wrap; min-width: 0px;&quot; href=&quot;https://paywall-auth.arcxp-dev.autonews.com/&quot; rel=&quot;noopener&quot; target=&quot;_blank&quot; data-zone=&quot;null&quot; class=&quot;link_link__hbWKh alias-domain_aliasLink__RQP89&quot; data-prefetch=&quot;true&quot;&gt;paywall-auth.arcxp-stage.autonews.com&lt;/a&gt;&lt;/div&gt;" style="shape=umlLifeline;perimeter=lifelinePerimeter;whiteSpace=wrap;html=1;container=1;dropTarget=0;collapsible=0;recursiveResize=0;outlineConnect=0;portConstraint=eastwest;newEdgeStyle={&quot;curved&quot;:0,&quot;rounded&quot;:0};" vertex="1" parent="1">
          <mxGeometry x="540" y="270" width="320" height="730" as="geometry" />
        </mxCell>
        <mxCell id="DkS5B9mOx-mKUJ4WU4K5-25" value="Test" style="shape=umlLifeline;perimeter=lifelinePerimeter;whiteSpace=wrap;html=1;container=1;dropTarget=0;collapsible=0;recursiveResize=0;outlineConnect=0;portConstraint=eastwest;newEdgeStyle={&quot;curved&quot;:0,&quot;rounded&quot;:0};" vertex="1" parent="1">
          <mxGeometry x="960" y="270" width="211" height="750" as="geometry" />
        </mxCell>
        <mxCell id="DkS5B9mOx-mKUJ4WU4K5-28" value="" style="edgeStyle=orthogonalEdgeStyle;rounded=0;orthogonalLoop=1;jettySize=auto;html=1;curved=0;" edge="1" parent="1" source="DkS5B9mOx-mKUJ4WU4K5-20" target="DkS5B9mOx-mKUJ4WU4K5-25">
          <mxGeometry relative="1" as="geometry">
            <mxPoint x="337.25" y="415" as="sourcePoint" />
            <mxPoint x="1062.75" y="410" as="targetPoint" />
            <Array as="points">
              <mxPoint x="540" y="645" />
              <mxPoint x="540" y="645" />
            </Array>
          </mxGeometry>
        </mxCell>
        <mxCell id="DkS5B9mOx-mKUJ4WU4K5-29" value="3. test" style="edgeLabel;html=1;align=center;verticalAlign=middle;resizable=0;points=[];" vertex="1" connectable="0" parent="DkS5B9mOx-mKUJ4WU4K5-28">
          <mxGeometry x="-0.0079" y="1" relative="1" as="geometry">
            <mxPoint as="offset" />
          </mxGeometry>
        </mxCell>
        <mxCell id="DkS5B9mOx-mKUJ4WU4K5-31" value="" style="endArrow=classic;html=1;rounded=0;" edge="1" parent="1">
          <mxGeometry width="50" height="50" relative="1" as="geometry">
            <mxPoint x="1065" y="680" as="sourcePoint" />
            <mxPoint x="58.5" y="680" as="targetPoint" />
          </mxGeometry>
        </mxCell>
        <mxCell id="DkS5B9mOx-mKUJ4WU4K5-32" value="5. pass test" style="edgeLabel;html=1;align=center;verticalAlign=middle;resizable=0;points=[];" vertex="1" connectable="0" parent="DkS5B9mOx-mKUJ4WU4K5-31">
          <mxGeometry x="0.0011" y="-3" relative="1" as="geometry">
            <mxPoint as="offset" />
          </mxGeometry>
        </mxCell>
        <mxCell id="DkS5B9mOx-mKUJ4WU4K5-33" value="&lt;h4 style=&quot;border-width: 0px; border-style: solid; border-color: hsla(var(--ds-gray-200-value),1); margin: 0px; --text-size: 1rem; --text-weight: 500; --text-line-height: 1.5rem; font-family: geistSansFont, &amp;quot;Apple Color Emoji&amp;quot;, &amp;quot;Segoe UI Emoji&amp;quot;, &amp;quot;Segoe UI Symbol&amp;quot;, arial; color: rgb(23, 23, 23); font-weight: var(--text-weight); line-height: var(--text-line-height); text-align: start; --text-letter-spacing: initial; box-sizing: border-box; --tw-border-spacing-x: 0; --tw-border-spacing-y: 0; --tw-translate-x: 0; --tw-translate-y: 0; --tw-rotate: 0; --tw-skew-x: 0; --tw-skew-y: 0; --tw-scale-x: 1; --tw-scale-y: 1; --tw-pan-x: ; --tw-pan-y: ; --tw-pinch-zoom: ; --tw-scroll-snap-strictness: proximity; --tw-gradient-from-position: ; --tw-gradient-via-position: ; --tw-gradient-to-position: ; --tw-ordinal: ; --tw-slashed-zero: ; --tw-numeric-figure: ; --tw-numeric-spacing: ; --tw-numeric-fraction: ; --tw-ring-inset: ; --tw-ring-offset-width: 0px; --tw-ring-offset-color: #fff; --tw-ring-color: rgba(147,197,253,.5); --tw-ring-offset-shadow: 0 0 #0000; --tw-ring-shadow: 0 0 #0000; --tw-shadow: 0 0 #0000; --tw-shadow-colored: 0 0 #0000; --tw-blur: ; --tw-brightness: ; --tw-contrast: ; --tw-grayscale: ; --tw-hue-rotate: ; --tw-invert: ; --tw-saturate: ; --tw-sepia: ; --tw-drop-shadow: ; --tw-backdrop-blur: ; --tw-backdrop-brightness: ; --tw-backdrop-contrast: ; --tw-backdrop-grayscale: ; --tw-backdrop-hue-rotate: ; --tw-backdrop-invert: ; --tw-backdrop-opacity: ; --tw-backdrop-saturate: ; --tw-backdrop-sepia: ; background-color: rgb(255, 255, 255); --text-color: var(--ds-gray-1000); overflow-wrap: anywhere; position: relative;&quot; data-version=&quot;v1&quot; class=&quot;text_wrapper__i87JK&quot;&gt;&lt;div style=&quot;border-width: 0px; border-style: solid; border-color: hsla(var(--ds-gray-200-value),1); box-sizing: border-box; --tw-border-spacing-x: 0; --tw-border-spacing-y: 0; --tw-translate-x: 0; --tw-translate-y: 0; --tw-rotate: 0; --tw-skew-x: 0; --tw-skew-y: 0; --tw-scale-x: 1; --tw-scale-y: 1; --tw-pan-x: ; --tw-pan-y: ; --tw-pinch-zoom: ; --tw-scroll-snap-strictness: proximity; --tw-gradient-from-position: ; --tw-gradient-via-position: ; --tw-gradient-to-position: ; --tw-ordinal: ; --tw-slashed-zero: ; --tw-numeric-figure: ; --tw-numeric-spacing: ; --tw-numeric-fraction: ; --tw-ring-inset: ; --tw-ring-offset-width: 0px; --tw-ring-offset-color: #fff; --tw-ring-color: rgba(147,197,253,.5); --tw-ring-offset-shadow: 0 0 #0000; --tw-ring-shadow: 0 0 #0000; --tw-shadow: 0 0 #0000; --tw-shadow-colored: 0 0 #0000; --tw-blur: ; --tw-brightness: ; --tw-contrast: ; --tw-grayscale: ; --tw-hue-rotate: ; --tw-invert: ; --tw-saturate: ; --tw-sepia: ; --tw-drop-shadow: ; --tw-backdrop-blur: ; --tw-backdrop-brightness: ; --tw-backdrop-contrast: ; --tw-backdrop-grayscale: ; --tw-backdrop-hue-rotate: ; --tw-backdrop-invert: ; --tw-backdrop-opacity: ; --tw-backdrop-saturate: ; --tw-backdrop-sepia: ; visibility: visible;&quot; class=&quot;jsx-7f6b6172870dc978&quot;&gt;&lt;a style=&quot;border-width: 0px; border-style: solid; border-color: hsla(var(--ds-gray-200-value),1); box-sizing: border-box; --tw-border-spacing-x: 0; --tw-border-spacing-y: 0; --tw-translate-x: 0; --tw-translate-y: 0; --tw-rotate: 0; --tw-skew-x: 0; --tw-skew-y: 0; --tw-scale-x: 1; --tw-scale-y: 1; --tw-pan-x: ; --tw-pan-y: ; --tw-pinch-zoom: ; --tw-scroll-snap-strictness: proximity; --tw-gradient-from-position: ; --tw-gradient-via-position: ; --tw-gradient-to-position: ; --tw-ordinal: ; --tw-slashed-zero: ; --tw-numeric-figure: ; --tw-numeric-spacing: ; --tw-numeric-fraction: ; --tw-ring-inset: ; --tw-ring-offset-width: 0px; --tw-ring-offset-color: #fff; --tw-ring-color: rgba(147,197,253,.5); --tw-ring-offset-shadow: 0 0 #0000; --tw-ring-shadow: 0 0 #0000; --tw-shadow: 0 0 #0000; --tw-shadow-colored: 0 0 #0000; --tw-blur: ; --tw-brightness: ; --tw-contrast: ; --tw-grayscale: ; --tw-hue-rotate: ; --tw-invert: ; --tw-saturate: ; --tw-sepia: ; --tw-drop-shadow: ; --tw-backdrop-blur: ; --tw-backdrop-brightness: ; --tw-backdrop-contrast: ; --tw-backdrop-grayscale: ; --tw-backdrop-hue-rotate: ; --tw-backdrop-invert: ; --tw-backdrop-opacity: ; --tw-backdrop-saturate: ; --tw-backdrop-sepia: ; -webkit-tap-highlight-color: rgba(0, 0, 0, 0); text-decoration-line: none; cursor: pointer; outline: none; align-items: flex-start; word-break: break-word; min-width: 0px;&quot; data-prefetch=&quot;true&quot; class=&quot;link_link__hbWKh alias-domain_aliasLink__RQP89&quot; data-zone=&quot;null&quot; target=&quot;_blank&quot; rel=&quot;noopener&quot; href=&quot;https://paywalls.vercel.app/&quot;&gt;paywalls.vercel.app&lt;/a&gt;&lt;/div&gt;&lt;/h4&gt;&lt;div style=&quot;text-wrap: nowrap; text-align: left;&quot;&gt;&lt;a style=&quot;border-width: 0px; border-style: solid; border-color: hsla(var(--ds-gray-200-value),1); box-sizing: border-box; --tw-border-spacing-x: 0; --tw-border-spacing-y: 0; --tw-translate-x: 0; --tw-translate-y: 0; --tw-rotate: 0; --tw-skew-x: 0; --tw-skew-y: 0; --tw-scale-x: 1; --tw-scale-y: 1; --tw-pan-x: ; --tw-pan-y: ; --tw-pinch-zoom: ; --tw-scroll-snap-strictness: proximity; --tw-gradient-from-position: ; --tw-gradient-via-position: ; --tw-gradient-to-position: ; --tw-ordinal: ; --tw-slashed-zero: ; --tw-numeric-figure: ; --tw-numeric-spacing: ; --tw-numeric-fraction: ; --tw-ring-inset: ; --tw-ring-offset-width: 0px; --tw-ring-offset-color: #fff; --tw-ring-color: rgba(147,197,253,.5); --tw-ring-offset-shadow: 0 0 #0000; --tw-ring-shadow: 0 0 #0000; --tw-shadow: 0 0 #0000; --tw-shadow-colored: 0 0 #0000; --tw-blur: ; --tw-brightness: ; --tw-contrast: ; --tw-grayscale: ; --tw-hue-rotate: ; --tw-invert: ; --tw-saturate: ; --tw-sepia: ; --tw-drop-shadow: ; --tw-backdrop-blur: ; --tw-backdrop-brightness: ; --tw-backdrop-contrast: ; --tw-backdrop-grayscale: ; --tw-backdrop-hue-rotate: ; --tw-backdrop-invert: ; --tw-backdrop-opacity: ; --tw-backdrop-saturate: ; --tw-backdrop-sepia: ; -webkit-tap-highlight-color: rgba(0, 0, 0, 0); text-decoration-line: none; cursor: pointer; outline: none; align-items: flex-start; word-break: break-word; font-family: geistSansFont, &amp;quot;Apple Color Emoji&amp;quot;, &amp;quot;Segoe UI Emoji&amp;quot;, &amp;quot;Segoe UI Symbol&amp;quot;, arial; text-wrap: wrap; min-width: 0px;&quot; data-prefetch=&quot;true&quot; class=&quot;link_link__hbWKh alias-domain_aliasLink__RQP89&quot; data-zone=&quot;null&quot; target=&quot;_blank&quot; rel=&quot;noopener&quot; href=&quot;https://paywall-auth.arcxp-dev.autonews.com/&quot;&gt;paywall-auth.arcxp-prod.autonews.com&lt;/a&gt;&lt;/div&gt;" style="shape=umlLifeline;perimeter=lifelinePerimeter;whiteSpace=wrap;html=1;container=1;dropTarget=0;collapsible=0;recursiveResize=0;outlineConnect=0;portConstraint=eastwest;newEdgeStyle={&quot;curved&quot;:0,&quot;rounded&quot;:0};" vertex="1" parent="1">
          <mxGeometry x="1220" y="270" width="350" height="690" as="geometry" />
        </mxCell>
        <mxCell id="DkS5B9mOx-mKUJ4WU4K5-42" value="call /api/listing/[site] to get paywalls" style="edgeStyle=orthogonalEdgeStyle;rounded=0;orthogonalLoop=1;jettySize=auto;html=1;curved=0;" edge="1" parent="1" source="DkS5B9mOx-mKUJ4WU4K5-40" target="DkS5B9mOx-mKUJ4WU4K5-41">
          <mxGeometry relative="1" as="geometry" />
        </mxCell>
        <mxCell id="DkS5B9mOx-mKUJ4WU4K5-48" value="" style="edgeStyle=orthogonalEdgeStyle;rounded=0;orthogonalLoop=1;jettySize=auto;html=1;curved=0;" edge="1" parent="1" source="DkS5B9mOx-mKUJ4WU4K5-40" target="DkS5B9mOx-mKUJ4WU4K5-47">
          <mxGeometry relative="1" as="geometry">
            <Array as="points">
              <mxPoint x="380" y="1160" />
              <mxPoint x="380" y="1160" />
            </Array>
          </mxGeometry>
        </mxCell>
        <mxCell id="DkS5B9mOx-mKUJ4WU4K5-40" value="Paywall-auth" style="shape=umlLifeline;perimeter=lifelinePerimeter;whiteSpace=wrap;html=1;container=1;dropTarget=0;collapsible=0;recursiveResize=0;outlineConnect=0;portConstraint=eastwest;newEdgeStyle={&quot;curved&quot;:0,&quot;rounded&quot;:0};" vertex="1" parent="1">
          <mxGeometry x="80" y="1110" width="100" height="300" as="geometry" />
        </mxCell>
        <mxCell id="DkS5B9mOx-mKUJ4WU4K5-44" value="call /api/invalidate/[...tags] to clear cache for paywall rules when paywalls CRUD" style="edgeStyle=orthogonalEdgeStyle;rounded=0;orthogonalLoop=1;jettySize=auto;html=1;curved=0;" edge="1" parent="1" source="DkS5B9mOx-mKUJ4WU4K5-41" target="DkS5B9mOx-mKUJ4WU4K5-40">
          <mxGeometry relative="1" as="geometry">
            <mxPoint x="979.5" y="1260" as="targetPoint" />
            <Array as="points">
              <mxPoint x="630" y="1350" />
              <mxPoint x="630" y="1350" />
            </Array>
          </mxGeometry>
        </mxCell>
        <mxCell id="DkS5B9mOx-mKUJ4WU4K5-50" value="" style="edgeStyle=orthogonalEdgeStyle;rounded=0;orthogonalLoop=1;jettySize=auto;html=1;curved=0;" edge="1" parent="1" source="DkS5B9mOx-mKUJ4WU4K5-41" target="DkS5B9mOx-mKUJ4WU4K5-49">
          <mxGeometry relative="1" as="geometry">
            <Array as="points">
              <mxPoint x="1220" y="1310" />
              <mxPoint x="1220" y="1310" />
            </Array>
          </mxGeometry>
        </mxCell>
        <mxCell id="DkS5B9mOx-mKUJ4WU4K5-41" value="Paywalls" style="shape=umlLifeline;perimeter=lifelinePerimeter;whiteSpace=wrap;html=1;container=1;dropTarget=0;collapsible=0;recursiveResize=0;outlineConnect=0;portConstraint=eastwest;newEdgeStyle={&quot;curved&quot;:0,&quot;rounded&quot;:0};" vertex="1" parent="1">
          <mxGeometry x="1110" y="1110" width="100" height="300" as="geometry" />
        </mxCell>
        <mxCell id="DkS5B9mOx-mKUJ4WU4K5-47" value="&lt;h4&gt;&lt;span style=&quot;background-color: initial;&quot;&gt;set up custom domains:&lt;/span&gt;&lt;/h4&gt;&lt;h4&gt;&lt;span style=&quot;background-color: initial; font-weight: normal;&quot;&gt;1. set custom preview domain with specific branch&amp;nbsp;&lt;/span&gt;&lt;span style=&quot;background-color: initial; font-weight: 400;&quot;&gt;https://vercel.com/craincom/paywall-auth/settings/domains&lt;/span&gt;&lt;/h4&gt;&lt;span style=&quot;background-color: initial;&quot;&gt;2. add the custom to skip deploy protected to allow public accessible,&amp;nbsp;&lt;/span&gt;https://vercel.com/craincom/paywall-auth/settings/deployment-protection&lt;div&gt;&lt;br&gt;&lt;/div&gt;&lt;div&gt;3. set up following envs:&amp;nbsp;&lt;span style=&quot;background-color: rgb(255, 255, 255); font-family: geistMonoFont, ui-monospace, &amp;quot;Apple Color Emoji&amp;quot;, &amp;quot;Segoe UI Emoji&amp;quot;, &amp;quot;Segoe UI Symbol&amp;quot;, SFMono-Regular, &amp;quot;Roboto Mono&amp;quot;, Menlo, Monaco, &amp;quot;Liberation Mono&amp;quot;, &amp;quot;DejaVu Sans Mono&amp;quot;, &amp;quot;Courier New&amp;quot;, monospace; font-size: 14px; text-wrap: nowrap;&quot;&gt;DEPLOYMENT_URL,&amp;nbsp;&lt;/span&gt;&lt;span style=&quot;background-color: rgb(255, 255, 255); font-family: geistMonoFont, ui-monospace, &amp;quot;Apple Color Emoji&amp;quot;, &amp;quot;Segoe UI Emoji&amp;quot;, &amp;quot;Segoe UI Symbol&amp;quot;, SFMono-Regular, &amp;quot;Roboto Mono&amp;quot;, Menlo, Monaco, &amp;quot;Liberation Mono&amp;quot;, &amp;quot;DejaVu Sans Mono&amp;quot;, &amp;quot;Courier New&amp;quot;, monospace; font-size: 14px; text-wrap: nowrap;&quot;&gt;NEXT_PUBLIC_PAYWALL_RULE_DOMAIN&lt;/span&gt;&lt;/div&gt;" style="whiteSpace=wrap;html=1;align=left;" vertex="1" parent="1">
          <mxGeometry x="450" y="1040" width="520" height="180" as="geometry" />
        </mxCell>
        <UserObject label="set up custom domains:&#xa;1. set custom preview domain with specific branch https://vercel.com/craincom/paywalls/settings/domains&#xa;&#xa;&#xa;3. set up following envs: DEPLOYMENT_URL, NEXT_PUBLIC_CLEAR_CACHE_URLs, &#xa;&#xa;&#xa;4. if need change store database, add &#xa;UPSTASH_REDIS_REST_TOKEN, UPSTASH_REDIS_REST_URL for that preview sepecific branch" link="set up custom domains:&#xa;1. set custom preview domain with specific branch https://vercel.com/craincom/paywalls/settings/domains&#xa;&#xa;&#xa;3. set up following envs: DEPLOYMENT_URL, NEXT_PUBLIC_CLEAR_CACHE_URLs, &#xa;&#xa;&#xa;4. if need change store database, add &#xa;UPSTASH_REDIS_REST_TOKEN, UPSTASH_REDIS_REST_URL for that preview sepecific branch" id="DkS5B9mOx-mKUJ4WU4K5-49">
          <mxCell style="whiteSpace=wrap;html=1;align=left;" vertex="1" parent="1">
            <mxGeometry x="1280" y="1090" width="340" height="440" as="geometry" />
          </mxCell>
        </UserObject>
      </root>
    </mxGraphModel>
  </diagram>
</mxfile>
